<svg xmlns="http://www.w3.org/2000/svg" viewBox="0 0 201 48" width="201" height="48" role="img" aria-label="CueLine">
  <title>CueLine</title>
  <g fill="none" stroke="#0F1720" stroke-width="3" stroke-linecap="butt" stroke-linejoin="miter">
    <path d="M21.81 14.68A11.5 14.5 0 1 0 21.81 33.32"/>
    <path d="M37.5 8V24A11.5 14.5 0 0 0 60.5 24V8"/>
    <path d="M73.5 8V40"/>
    <path d="M72 9.5H92"/>
    <path d="M72 24H88"/>
    <path d="M72 38.5H92"/>
    <path d="M103.5 8V38.5"/>
    <path d="M102 38.5H122"/>
    <path d="M133.5 8V40"/>
    <path d="M146.5 40V8L169.5 40V8"/>
    <path d="M182.5 8V40"/>
    <path d="M181 9.5H201"/>
    <path d="M181 24H197"/>
    <path d="M181 38.5H201"/>
  </g>
</svg>
