<svg xmlns="http://www.w3.org/2000/svg" viewBox="0 0 1000 590" width="1000" height="590" role="img" aria-label="一次 CueLine 运行像一本提示本：机器发出观测，控制器发出一条指令，已注册的 runner 执行它，直到控制器发出 complete。">
  <title>一次 CueLine 运行，像读一本提示本</title>
  <style>
    text { font-family: ui-monospace, SFMono-Regular, Menlo, Consolas, "Noto Sans CJK SC", "PingFang SC", "Microsoft YaHei", monospace }
    .hd   { fill: #0F1720; font-size: 15px; letter-spacing: .02em }
    .sub  { fill: #8B949E; font-size: 12.5px }
    .rule { stroke: #E4E8EC; stroke-width: 1 }
    .spine{ stroke: #0F1720; stroke-width: 2 }
    .tick { stroke: #C3CAD2; stroke-width: 1 }
    .say  { fill: #C8553D; font-size: 13.5px }
    .obs  { fill: #4A5561; font-size: 13.5px }
    .note { fill: #8B949E; font-size: 12.5px }
    .rnd  { fill: #B6BEC7; font-size: 11px; letter-spacing: .14em }
    .foot { fill: #8B949E; font-size: 12.5px }
    .cue  { fill: #C8553D }
    @media (prefers-color-scheme: dark) {
      .hd { fill: #E6EDF3 }
      .sub, .note, .foot { fill: #7D8590 }
      .rule { stroke: #21262D }
      .spine { stroke: #C9D1D9 }
      .tick { stroke: #30363D }
      .say { fill: #E0674C }
      .obs { fill: #ADBAC7 }
      .rnd { fill: #484F58 }
      .cue { fill: #E0674C }
    }
  </style>

  <text x="505" y="44" class="hd" text-anchor="end">ChatGPT 网页会话</text>
  <text x="505" y="64" class="sub" text-anchor="end">控制器 — 规划、发令、审阅证据</text>
  <text x="555" y="44" class="hd">你的机器</text>
  <text x="555" y="64" class="sub">CueLine — 校验、路由、执行、记录</text>

  <path d="M40 84H505" class="rule"/>
  <path d="M555 84H960" class="rule"/>
  <path d="M530 84V520" class="spine"/>

  <text x="40" y="126" class="rnd">第 1 轮</text>
  <path d="M505 122H524" class="tick"/>
  <text x="555" y="126" class="obs">observation · 你的需求，尚无任何作业</text>
  <path d="M524 118 517 122 524 126z" class="cue"/>

  <path d="M536 158 545 162 536 166z" class="cue"/>
  <text x="505" y="166" class="say" text-anchor="end">dispatch · review · lane default · advise</text>
  <path d="M545 162H565" class="tick"/>
  <text x="575" y="166" class="note">任何进程启动之前就先确定路由</text>

  <text x="555" y="200" class="note">codex exec（只读）→ 成功 · 输出已保存</text>

  <text x="40" y="264" class="rnd">第 2 轮</text>
  <path d="M505 260H524" class="tick"/>
  <text x="555" y="264" class="obs">observation · 证据原样回传</text>
  <path d="M524 256 517 260 524 264z" class="cue"/>

  <path d="M536 296 545 300 536 304z" class="cue"/>
  <text x="505" y="304" class="say" text-anchor="end">dispatch · patch · mode work</text>
  <path d="M545 300H565" class="tick"/>
  <text x="575" y="304" class="note">argv[0] 必须事先被允许</text>

  <text x="555" y="338" class="note">codex exec（workspace-write）→ 成功</text>

  <text x="40" y="402" class="rnd">第 3 轮</text>
  <path d="M505 398H524" class="tick"/>
  <text x="555" y="402" class="obs">observation · 更新后的证据</text>
  <path d="M524 394 517 398 524 402z" class="cue"/>

  <path d="M536 434 545 438 536 442z" class="cue"/>
  <text x="505" y="442" class="say" text-anchor="end">complete · final_delivery_text</text>
  <path d="M545 438H565" class="tick"/>
  <text x="575" y="442" class="note">原样返回给你</text>

  <text x="555" y="476" class="note">本次运行封存 · events.jsonl 就是记录</text>

  <path d="M40 520H960" class="rule"/>
  <text x="40" y="546" class="foot">只有五个动作 — dispatch · wait · inspect · complete · blocked。</text>
  <text x="40" y="568" class="foot">信封之外的文本一律不执行；worker 一旦启动就不会自动重试。</text>
</svg>
