<svg xmlns="http://www.w3.org/2000/svg" viewBox="0 0 1000 612" width="1000" height="612" role="img" aria-label="CueLine の 1 回の実行をプロンプトブックとして読む：マシンが観測を送り、コントローラーがコマンドを 1 つ出し、登録済みの runner が実行し、complete が出るまで続く。">
  <title>CueLine の実行を、プロンプトブックとして読む</title>
  <style>
    text { font-family: ui-monospace, SFMono-Regular, Menlo, Consolas, "Hiragino Sans", "Noto Sans CJK JP", "Yu Gothic", monospace }
    .hd   { fill: #0F1720; font-size: 17px; letter-spacing: .02em }
    .sub  { fill: #8B949E; font-size: 13.5px }
    .rule { stroke: #E4E8EC; stroke-width: 1 }
    .spine{ stroke: #0F1720; stroke-width: 2 }
    .tick { stroke: #C3CAD2; stroke-width: 1 }
    .say  { fill: #C8553D; font-size: 15px }
    .obs  { fill: #4A5561; font-size: 15px }
    .note { fill: #8B949E; font-size: 13.5px }
    .rnd  { fill: #B6BEC7; font-size: 12px; letter-spacing: .14em }
    .foot { fill: #8B949E; font-size: 13.5px }
    .cue  { fill: #C8553D }
    @media (prefers-color-scheme: dark) {
      .hd { fill: #E6EDF3 }
      .sub, .note, .foot { fill: #7D8590 }
      .rule { stroke: #21262D }
      .spine { stroke: #C9D1D9 }
      .tick { stroke: #30363D }
      .say { fill: #E0674C }
      .obs { fill: #ADBAC7 }
      .rnd { fill: #484F58 }
      .cue { fill: #E0674C }
    }
  </style>

  <text x="505" y="44" class="hd" text-anchor="end">ChatGPT ウェブ会話</text>
  <text x="505" y="64" class="sub" text-anchor="end">コントローラー — 計画し、指示し、判断する</text>
  <text x="555" y="44" class="hd">現在の Codex + CueLine</text>
  <text x="555" y="64" class="sub">検証・永続化・引き渡し・記録</text>

  <path d="M40 84H505" class="rule"/>
  <path d="M555 84H960" class="rule"/>
  <path d="M530 84V520" class="spine"/>

  <text x="40" y="126" class="rnd">ラウンド 1</text>
  <path d="M505 122H524" class="tick"/>
  <text x="555" y="126" class="obs">observation · あなたの依頼、ジョブはまだない</text>
  <path d="M524 118 517 122 524 126z" class="cue"/>

  <path d="M536 158 545 162 536 166z" class="cue"/>
  <text x="505" y="166" class="say" text-anchor="end">dispatch · review · lane default · advise</text>
  <path d="M545 162H565" class="tick"/>
  <text x="575" y="166" class="note">プロセス起動の前にルートが決まる</text>

  <text x="555" y="200" class="note">現在の Codex（caller advise）→ 結果提出済み</text>

  <text x="40" y="264" class="rnd">ラウンド 2</text>
  <path d="M505 260H524" class="tick"/>
  <text x="555" y="264" class="obs">observation · 有界な証拠 · stdout 優先</text>
  <path d="M524 256 517 260 524 264z" class="cue"/>

  <path d="M536 296 545 300 536 304z" class="cue"/>
  <text x="505" y="304" class="say" text-anchor="end">dispatch · 追加確認 · mode advise</text>
  <path d="M545 300H565" class="tick"/>
  <text x="575" y="304" class="note">永続 caller 引き渡し</text>

  <text x="555" y="338" class="note">現在の Codex → 2 件目の結果提出済み</text>

  <text x="40" y="402" class="rnd">ラウンド 3</text>
  <path d="M505 398H524" class="tick"/>
  <text x="555" y="402" class="obs">observation · 更新済みの有界な証拠</text>
  <path d="M524 394 517 398 524 402z" class="cue"/>

  <path d="M536 434 545 438 536 442z" class="cue"/>
  <text x="505" y="442" class="say" text-anchor="end">complete · final_delivery_text</text>
  <path d="M545 438H565" class="tick"/>
  <text x="575" y="442" class="note">そのままあなたに返す</text>

  <text x="555" y="476" class="note">ラン確定 · events.jsonl が記録そのもの</text>

  <path d="M40 520H960" class="rule"/>
  <text x="40" y="546" class="foot">アクションは 5 つだけ — dispatch · wait · inspect · complete · blocked。</text>
  <text x="40" y="568" class="foot">1 回送信 → awaiting_controller → 1 回の読み取り観測。再送しません。</text>
  <text x="40" y="590" class="foot">Caller work は claim + start、process 実行は二重承認が必要です。</text>
</svg>
